<svg width="21" height="17" viewBox="0 0 21 17" fill="none" xmlns="http://www.w3.org/2000/svg">
<path fill-rule="evenodd" clip-rule="evenodd" d="M20.2443 8.70375C20.3918 8.5561 20.4746 8.35594 20.4746 8.14725C20.4746 7.93857 20.3918 7.73841 20.2443 7.59076L12.908 0.240753C12.8353 0.165506 12.7485 0.105472 12.6524 0.0641552C12.5564 0.0228382 12.453 0.00106586 12.3485 0.000108364C12.2439 -0.00084913 12.1402 0.0190273 12.0434 0.0585781C11.9466 0.0981289 11.8587 0.156561 11.7847 0.230466C11.7107 0.304371 11.6522 0.392271 11.6125 0.489032C11.5729 0.585794 11.5529 0.689482 11.5538 0.794046C11.5546 0.89861 11.5763 1.00195 11.6175 1.09805C11.6588 1.19415 11.7187 1.28107 11.7939 1.35375L17.7873 7.3587L0.787804 7.34715C0.578947 7.34688 0.378533 7.42958 0.23065 7.57706C0.0827698 7.72455 -0.000466935 7.92475 -0.000745417 8.1336C-0.0010239 8.34246 0.0816768 8.54288 0.229164 8.69076C0.376652 8.83864 0.576845 8.92188 0.785702 8.92215L17.7894 8.93266L11.7929 14.9408C11.7177 15.0134 11.6577 15.1004 11.6165 15.1965C11.5753 15.2926 11.5536 15.3959 11.5527 15.5005C11.5519 15.605 11.5719 15.7087 11.6115 15.8055C11.6511 15.9022 11.7097 15.9901 11.7836 16.064C11.8576 16.1379 11.9456 16.1964 12.0424 16.2359C12.1392 16.2755 12.2429 16.2954 12.3474 16.2944C12.452 16.2934 12.5553 16.2717 12.6514 16.2304C12.7474 16.189 12.8343 16.129 12.9069 16.0538L20.2443 8.70375Z" fill="#7D7D7D"/>
</svg>
