<svg width="20" height="20" viewBox="0 0 20 20" fill="none" xmlns="http://www.w3.org/2000/svg">
<path fill-rule="evenodd" clip-rule="evenodd" d="M17.9422 10.4417C18.0593 10.3245 18.125 10.1657 18.125 10.0001C18.125 9.83443 18.0593 9.67557 17.9422 9.55838L12.1197 3.72505C12.0621 3.66533 11.9931 3.61768 11.9169 3.58489C11.8407 3.5521 11.7587 3.53482 11.6757 3.53406C11.5927 3.5333 11.5104 3.54908 11.4336 3.58047C11.3567 3.61186 11.2869 3.65823 11.2282 3.71689C11.1695 3.77554 11.1231 3.8453 11.0916 3.9221C11.0602 3.99889 11.0443 4.08118 11.045 4.16417C11.0457 4.24716 11.0629 4.32918 11.0956 4.40545C11.1283 4.48171 11.1759 4.5507 11.2356 4.60838L15.9922 9.37422L2.50055 9.36505C2.33479 9.36483 2.17573 9.43046 2.05837 9.54752C1.941 9.66457 1.87494 9.82346 1.87472 9.98922C1.8745 10.155 1.94013 10.314 2.05719 10.4314C2.17424 10.5488 2.33312 10.6148 2.49888 10.6151L15.9939 10.6234L11.2347 15.3917C11.1751 15.4494 11.1275 15.5184 11.0948 15.5947C11.062 15.6709 11.0448 15.7529 11.0441 15.8359C11.0435 15.9189 11.0593 16.0012 11.0908 16.078C11.1222 16.1548 11.1687 16.2246 11.2274 16.2832C11.2861 16.3419 11.3559 16.3882 11.4327 16.4196C11.5096 16.451 11.5919 16.4668 11.6749 16.466C11.7578 16.4653 11.8398 16.448 11.9161 16.4152C11.9923 16.3824 12.0613 16.3348 12.1189 16.2751L17.9422 10.4417Z" fill="black"/>
</svg>
