<svg width="82" height="42" viewBox="0 0 82 42" fill="none" xmlns="http://www.w3.org/2000/svg">
<path d="M43.2368 16.6416H47.925V34.2811H43.2368V16.6416ZM48.9997 11.8921C49.0085 12.341 48.9288 12.7874 48.7652 13.2056C48.6015 13.6237 48.357 14.0056 48.0458 14.3292C47.7345 14.6529 47.3625 14.9121 46.951 15.092C46.5396 15.2719 46.0967 15.369 45.6477 15.3776C45.1983 15.3865 44.7515 15.3066 44.333 15.1426C43.9144 14.9786 43.5323 14.7336 43.2086 14.4218C42.8848 14.1099 42.6257 13.7373 42.4462 13.3252C42.2666 12.9131 42.1701 12.4696 42.1621 12.0201C42.154 11.5711 42.2344 11.125 42.3988 10.7071C42.5631 10.2892 42.8082 9.90776 43.12 9.5846C43.4318 9.26144 43.8042 9.00286 44.2159 8.82364C44.6277 8.64443 45.0707 8.54808 45.5196 8.54011C46.4255 8.52371 47.3007 8.86752 47.9532 9.49601C48.6057 10.1245 48.9821 10.9863 48.9997 11.8921ZM57.2181 11.9589H52.5298V16.636H49.7959V20.8566H52.5354V28.3678C52.4154 29.1559 52.4751 29.9608 52.71 30.7225C52.9449 31.4843 53.3489 32.183 53.8918 32.7667C54.4348 33.3503 55.1026 33.8037 55.8454 34.0929C56.5881 34.3821 57.3867 34.4998 58.1813 34.437C59.2982 34.4472 60.4058 34.2332 61.4386 33.8078V29.4369C60.8769 29.6375 60.2866 29.7465 59.6903 29.7598C59.3547 29.8131 59.0113 29.7862 58.6881 29.6815C58.365 29.5767 58.0711 29.397 57.8306 29.1571C57.5901 28.9171 57.4097 28.6237 57.3043 28.3007C57.1988 27.9778 57.1711 27.6344 57.2236 27.2988V20.851H61.4386V16.636H57.2236L57.2181 11.9589ZM23.5315 16.636L30.2466 34.2866H35.1297L41.7278 16.636H36.8001L32.6297 27.811L28.4537 16.6416L23.5315 16.636ZM77.7474 19.0247C76.2533 17.529 74.2868 16.5977 72.183 16.3894C70.0793 16.1811 67.9683 16.7088 66.21 17.8825C64.4517 19.0562 63.1548 20.8034 62.5403 22.8261C61.9258 24.8489 62.0317 27.0222 62.84 28.9757C63.6483 30.9291 65.109 32.5418 66.9732 33.5389C68.8373 34.5361 70.9895 34.856 73.0631 34.4441C75.1366 34.0322 77.0032 32.914 78.3447 31.2801C79.6862 29.6462 80.4196 27.5977 80.42 25.4836C80.4205 24.2842 80.1847 23.0965 79.7262 21.9883C79.2676 20.8801 78.5952 19.873 77.7474 19.0247ZM75.4088 27.1707C75.0719 27.9848 74.5011 28.6807 73.7686 29.1704C73.0362 29.6601 72.1749 29.9216 71.2939 29.9218C70.4128 29.922 69.5515 29.6609 68.8188 29.1715C68.0861 28.6821 67.515 27.9864 67.1778 27.1725C66.8405 26.3585 66.7522 25.4628 66.924 24.5987C67.0958 23.7345 67.5201 22.9407 68.1431 22.3177C68.7661 21.6947 69.5598 21.2704 70.424 21.0985C71.2881 20.9266 72.1838 21.0149 72.9978 21.3521C73.8108 21.69 74.5054 22.2611 74.994 22.9935C75.4825 23.7258 75.7431 24.5865 75.7429 25.4669C75.7443 26.0513 75.6308 26.6302 75.4088 27.1707ZM11.6104 9.17487L2 34.2866H7.16712L9.14934 29.0471H19.3499L21.3377 34.2922H26.4603L16.8889 9.18043L11.6104 9.17487ZM10.9088 24.4312L14.2496 15.5948L17.5905 24.4312H10.9088Z" fill="white"/>
</svg>
