<svg width="36" height="36" viewBox="0 0 36 36" fill="none" xmlns="http://www.w3.org/2000/svg">
<path d="M13.0059 16.3635L15.8184 19.1745C15.9174 19.2742 16.0351 19.3534 16.1649 19.4075C16.2946 19.4615 16.4338 19.4893 16.5744 19.4893C16.7149 19.4893 16.8541 19.4615 16.9838 19.4075C17.1136 19.3534 17.2314 19.2742 17.3304 19.1745L22.9959 13.509" stroke="#E21E2B" stroke-width="1.5" stroke-linecap="round" stroke-linejoin="round"/>
<path d="M31.0082 17.835V9.91499C31.0082 9.30731 30.8169 8.71504 30.4616 8.2221C30.1062 7.72917 29.6047 7.36055 29.0282 7.16849L21.6572 4.70999C19.2818 3.92838 16.7185 3.92838 14.3432 4.70999L6.97219 7.16699C6.3959 7.35897 5.8946 7.72736 5.53926 8.22C5.18391 8.71263 4.99252 9.30456 4.99219 9.91199V17.832C4.99246 19.787 5.48833 21.71 6.43346 23.4214C7.3786 25.1327 8.74214 26.5766 10.3967 27.618L16.4687 31.434C16.9282 31.7204 17.4588 31.8723 18.0002 31.8723C18.5416 31.8723 19.0722 31.7204 19.5317 31.434L25.6022 27.618C27.2568 26.5769 28.6205 25.1334 29.5659 23.4223C30.5113 21.7112 31.0075 19.7884 31.0082 17.8335" stroke="#E21E2B" stroke-width="1.5" stroke-linecap="round" stroke-linejoin="round"/>
</svg>
