<svg width="30" height="30" viewBox="0 0 30 30" fill="none" xmlns="http://www.w3.org/2000/svg">
<g clip-path="url(#clip0_1950_1775)">
<path fill-rule="evenodd" clip-rule="evenodd" d="M0 3.75012C0 2.87825 0 2.44325 0.095625 2.08512C0.223486 1.60863 0.474438 1.17414 0.823292 0.825291C1.17215 0.476437 1.60663 0.225485 2.08312 0.0976239C2.44125 0.00199891 2.87625 0.0019989 3.75 0.0019989C4.62375 0.0019989 5.05687 0.00199891 5.415 0.0976239C6.38625 0.358249 7.14375 1.11575 7.4025 2.08512C7.49812 2.44325 7.49812 2.87825 7.49812 3.75012C7.49812 4.622 7.49812 5.057 7.40437 5.41512C7.27651 5.89162 7.02556 6.3261 6.67671 6.67496C6.32785 7.02381 5.89337 7.27476 5.41687 7.40263C5.05687 7.49825 4.62187 7.49825 3.75 7.49825C2.87812 7.49825 2.44312 7.49825 2.085 7.40263C1.6085 7.27476 1.17402 7.02381 0.825167 6.67496C0.476313 6.3261 0.225361 5.89162 0.0975 5.41512C0 5.057 0 4.622 0 3.75012ZM3.75 5.62512C3.29625 5.62512 3.02062 5.62512 2.81062 5.61575C2.73022 5.61341 2.65006 5.60589 2.57062 5.59325C2.41141 5.55071 2.26622 5.46696 2.14969 5.35043C2.03316 5.2339 1.94941 5.08871 1.90687 4.9295C1.90875 4.937 1.89375 4.89012 1.88437 4.6895C1.875 4.4795 1.875 4.20012 1.875 3.75012C1.875 3.30012 1.875 3.02075 1.88437 2.81075C1.89375 2.61012 1.90875 2.56325 1.90687 2.57075C1.94941 2.41154 2.03316 2.26635 2.14969 2.14982C2.26622 2.03329 2.41141 1.94954 2.57062 1.907C2.56312 1.90887 2.61 1.89387 2.81062 1.8845C3.02062 1.87512 3.29812 1.87512 3.75 1.87512C4.20187 1.87512 4.47937 1.87512 4.68937 1.8845C4.89 1.89387 4.93687 1.90887 4.92937 1.907C5.08859 1.94954 5.23378 2.03329 5.35031 2.14982C5.46683 2.26635 5.55059 2.41154 5.59312 2.57075C5.59125 2.56325 5.60625 2.61012 5.61562 2.81075C5.625 3.02075 5.625 3.29825 5.625 3.75012C5.625 4.202 5.625 4.4795 5.61562 4.6895C5.61328 4.7699 5.60576 4.85006 5.59312 4.9295C5.55059 5.08871 5.46683 5.2339 5.35031 5.35043C5.23378 5.46696 5.08859 5.55071 4.92937 5.59325C4.93687 5.59137 4.89 5.60637 4.68937 5.61575C4.47937 5.62512 4.20187 5.62512 3.75 5.62512ZM0 15.0001C0 14.1283 0 13.6933 0.095625 13.3351C0.223486 12.8586 0.474438 12.4241 0.823292 12.0753C1.17215 11.7264 1.60663 11.4755 2.08312 11.3476C2.44125 11.252 2.87625 11.252 3.74812 11.252C4.62 11.252 5.055 11.252 5.41313 11.3476C6.38437 11.6083 7.14187 12.3658 7.40062 13.3351C7.49625 13.6933 7.49625 14.1283 7.49625 15.0001C7.49625 15.872 7.49625 16.307 7.4025 16.6651C7.27464 17.1416 7.02369 17.5761 6.67483 17.925C6.32598 18.2738 5.8915 18.5248 5.415 18.6526C5.055 18.7483 4.62 18.7482 3.74812 18.7482C2.87625 18.7482 2.44125 18.7483 2.08312 18.6526C1.60663 18.5248 1.17215 18.2738 0.823292 17.925C0.474438 17.5761 0.223486 17.1416 0.095625 16.6651C0 16.307 0 15.872 0 15.0001ZM3.75 16.8751C3.29625 16.8751 3.02062 16.8751 2.81062 16.8657C2.73022 16.8634 2.65006 16.8559 2.57062 16.8433C2.41141 16.8007 2.26622 16.717 2.14969 16.6004C2.03316 16.4839 1.94941 16.3387 1.90687 16.1795C1.90875 16.187 1.89375 16.1401 1.88437 15.9395C1.875 15.7295 1.875 15.452 1.875 15.0001C1.875 14.5483 1.875 14.2708 1.88437 14.0608C1.89375 13.8601 1.90875 13.8133 1.90687 13.8208C1.94941 13.6615 2.03316 13.5163 2.14969 13.3998C2.26622 13.2833 2.41141 13.1995 2.57062 13.157C2.57062 13.157 2.62312 13.1439 2.81062 13.1345C3.02062 13.1251 3.29812 13.1251 3.75 13.1251C4.20187 13.1251 4.47937 13.1251 4.68937 13.1345C4.89 13.1439 4.93687 13.1589 4.92937 13.157C5.08859 13.1995 5.23378 13.2833 5.35031 13.3998C5.46683 13.5163 5.55059 13.6615 5.59312 13.8208C5.59312 13.8208 5.60625 13.8733 5.61562 14.0608C5.625 14.2708 5.625 14.5483 5.625 15.0001C5.625 15.452 5.625 15.7295 5.61562 15.9395C5.61328 16.0199 5.60576 16.1001 5.59312 16.1795C5.55059 16.3387 5.46683 16.4839 5.35031 16.6004C5.23378 16.717 5.08859 16.8007 4.92937 16.8433C4.92937 16.8433 4.87687 16.8564 4.68937 16.8657C4.47937 16.8751 4.20187 16.8751 3.75 16.8751ZM0.095625 24.5626C0 24.9208 0 25.3558 0 26.2276C0 27.0995 0 27.5364 0.095625 27.8926C0.223486 28.3691 0.474438 28.8036 0.823292 29.1525C1.17215 29.5013 1.60663 29.7523 2.08312 29.8801C2.44125 29.9758 2.87625 29.9758 3.74812 29.9758C4.62 29.9758 5.055 29.9758 5.41313 29.8801C5.88962 29.7523 6.3241 29.5013 6.67296 29.1525C7.02181 28.8036 7.27276 28.3691 7.40062 27.8926C7.49625 27.5345 7.49625 27.0995 7.49625 26.2276C7.49625 25.3558 7.49625 24.9189 7.4025 24.5626C7.27464 24.0861 7.02369 23.6516 6.67483 23.3028C6.32598 22.9539 5.8915 22.703 5.415 22.5751C5.055 22.4795 4.62 22.4795 3.74812 22.4795C2.87625 22.4795 2.44125 22.4795 2.08312 22.5751C1.60663 22.703 1.17215 22.9539 0.823292 23.3028C0.474438 23.6516 0.223486 24.0861 0.095625 24.5626ZM2.81437 28.0876C3.02437 28.097 3.30187 28.097 3.75375 28.097C4.20563 28.097 4.485 28.097 4.69312 28.0876C4.7737 28.0887 4.85416 28.0812 4.93312 28.0651C5.09199 28.0223 5.23679 27.9384 5.35297 27.8219C5.46915 27.7054 5.55263 27.5604 5.595 27.4014C5.595 27.3958 5.60812 27.3376 5.6175 27.1614C5.62687 26.9514 5.62687 26.6739 5.62687 26.2239C5.62687 25.7739 5.62687 25.4926 5.6175 25.2826C5.60812 25.0951 5.595 25.0426 5.595 25.0426C5.55234 24.884 5.46874 24.7393 5.35258 24.6232C5.23641 24.507 5.09177 24.4234 4.93312 24.3808C4.93312 24.3808 4.88062 24.3676 4.69312 24.3601C4.48312 24.3507 4.20563 24.3489 3.75375 24.3489C3.30187 24.3489 3.02437 24.3489 2.81437 24.3601C2.73402 24.3618 2.65385 24.3687 2.57437 24.3808C2.41551 24.4236 2.27071 24.5075 2.15453 24.624C2.03835 24.7405 1.95487 24.8855 1.9125 25.0445C1.9125 25.0445 1.89937 25.097 1.89 25.2845C1.88062 25.4945 1.88062 25.772 1.88062 26.2239C1.88062 26.6758 1.88062 26.9551 1.89 27.1633C1.89937 27.3639 1.91437 27.4108 1.9125 27.4033C1.95504 27.5625 2.03879 27.7077 2.15532 27.8242C2.27185 27.9407 2.41704 28.0245 2.57625 28.067C2.65568 28.0796 2.73585 28.0872 2.81625 28.0895L2.81437 28.0876Z" fill="white"/>
<path d="M12.1875 3.75C11.9389 3.75 11.7004 3.84877 11.5246 4.02459C11.3488 4.2004 11.25 4.43886 11.25 4.6875C11.25 4.93614 11.3488 5.1746 11.5246 5.35041C11.7004 5.52623 11.9389 5.625 12.1875 5.625H29.0625C29.3111 5.625 29.5496 5.52623 29.7254 5.35041C29.9012 5.1746 30 4.93614 30 4.6875C30 4.43886 29.9012 4.2004 29.7254 4.02459C29.5496 3.84877 29.3111 3.75 29.0625 3.75H12.1875ZM11.25 15.9375C11.25 15.6889 11.3488 15.4504 11.5246 15.2746C11.7004 15.0988 11.9389 15 12.1875 15H29.0625C29.3111 15 29.5496 15.0988 29.7254 15.2746C29.9012 15.4504 30 15.6889 30 15.9375C30 16.1861 29.9012 16.4246 29.7254 16.6004C29.5496 16.7762 29.3111 16.875 29.0625 16.875H12.1875C11.9389 16.875 11.7004 16.7762 11.5246 16.6004C11.3488 16.4246 11.25 16.1861 11.25 15.9375ZM12.1875 26.25C11.9389 26.25 11.7004 26.3488 11.5246 26.5246C11.3488 26.7004 11.25 26.9389 11.25 27.1875C11.25 27.4361 11.3488 27.6746 11.5246 27.8504C11.7004 28.0262 11.9389 28.125 12.1875 28.125H29.0625C29.3111 28.125 29.5496 28.0262 29.7254 27.8504C29.9012 27.6746 30 27.4361 30 27.1875C30 26.9389 29.9012 26.7004 29.7254 26.5246C29.5496 26.3488 29.3111 26.25 29.0625 26.25H12.1875Z" fill="white"/>
</g>
<defs>
<clipPath id="clip0_1950_1775">
<rect width="30" height="30" fill="white"/>
</clipPath>
</defs>
</svg>
