<svg width="240" height="66" viewBox="0 0 240 66" fill="none" xmlns="http://www.w3.org/2000/svg">
<g clip-path="url(#clip0_7901_477)">
<path d="M87.3445 18.2237C92.2268 10.5437 100.808 5.44289 110.587 5.44289C124.914 5.44289 136.678 16.3858 137.985 30.3655H143.445C142.121 13.3777 127.922 0 110.587 0C97.6767 0 86.5065 7.4203 81.0957 18.2237H87.3445ZM137.985 35.5433C136.678 49.523 124.913 60.465 110.587 60.465C100.807 60.465 92.2267 55.3652 87.3437 47.6841H81.0957C86.5065 58.4859 97.6767 65.908 110.587 65.908C127.922 65.908 142.121 52.5312 143.445 35.5433H137.985Z" fill="#E21E2B"/>
<path d="M240 33.5816H124.36V32.1603H240V33.5816ZM148.07 37.7132H154.623V38.8436H152.027V45.7745H150.667V38.8436H148.07V37.7132ZM159.898 40.969H164.404C164.342 40.2918 164.169 39.7824 163.886 39.4429C163.451 38.9172 162.886 38.6547 162.193 38.6547C161.566 38.6547 161.037 38.8643 160.61 39.2844C160.182 39.7045 159.944 40.2667 159.898 40.969ZM164.387 43.1778L165.801 43.3535C165.577 44.1782 165.164 44.8182 164.563 45.2738C163.959 45.7294 163.19 45.9572 162.254 45.9572C161.073 45.9572 160.138 45.5942 159.446 44.8676C158.756 44.1408 158.409 43.1232 158.409 41.8118C158.409 40.4563 158.761 39.4031 159.459 38.6547C160.157 37.9055 161.064 37.5304 162.178 37.5304C163.256 37.5304 164.137 37.8985 164.82 38.6314C165.504 39.3659 165.846 40.3983 165.846 41.7287C165.846 41.81 165.844 41.9314 165.839 42.0924H159.824C159.874 42.9794 160.124 43.6568 160.575 44.1279C161.026 44.5983 161.587 44.8338 162.26 44.8338C162.762 44.8338 163.19 44.7022 163.545 44.4389C163.898 44.1764 164.18 43.7546 164.387 43.1778ZM169.375 45.7754L172.321 41.5849L169.594 37.7132H171.304L172.541 39.6031C172.775 39.9625 172.961 40.2631 173.104 40.5065C173.327 40.1722 173.531 39.8769 173.719 39.6178L175.078 37.7123H176.711L173.924 41.5087L176.924 45.7754H175.244L173.59 43.2695L173.149 42.5939L171.03 45.7754H169.375ZM181.197 37.7132H182.565V44.6511H186.347V37.7132H187.713V44.6511H188.594V48.0602H187.47V45.7745H181.197V37.7132ZM194.053 40.969H198.556C198.495 40.2918 198.324 39.7824 198.039 39.4429C197.604 38.9172 197.04 38.6547 196.347 38.6547C195.718 38.6547 195.191 38.8643 194.763 39.2844C194.334 39.7045 194.098 40.2667 194.053 40.969ZM198.541 43.1778L199.954 43.3535C199.732 44.1782 199.318 44.8182 198.716 45.2738C198.113 45.7294 197.345 45.9572 196.408 45.9572C195.227 45.9572 194.291 45.5942 193.6 44.8676C192.909 44.1408 192.564 43.1232 192.564 41.8118C192.564 40.4563 192.913 39.4031 193.611 38.6547C194.311 37.9055 195.218 37.5304 196.331 37.5304C197.41 37.5304 198.291 37.8985 198.974 38.6314C199.658 39.3659 199.999 40.3983 199.999 41.7287C199.999 41.81 199.996 41.9314 199.992 42.0924H193.977C194.028 42.9794 194.278 43.6568 194.729 44.1279C195.18 44.5983 195.742 44.8338 196.414 44.8338C196.916 44.8338 197.345 44.7022 197.699 44.4389C198.053 44.1764 198.334 43.7546 198.541 43.1778ZM204.79 37.7132H206.156V41.0687H209.947V37.7132H211.313V45.7745H209.947V42.1998H206.156V45.7745H204.79V37.7132ZM215.746 37.7132H222.301V38.8436H219.703V45.7745H218.344V38.8436H215.746V37.7132ZM227.956 41.7893C227.956 42.8269 228.166 43.5936 228.587 44.0889C229.007 44.5861 229.515 44.8338 230.113 44.8338C230.721 44.8338 231.241 44.5766 231.674 44.0629C232.107 43.5493 232.323 42.7542 232.323 41.6759C232.323 40.6477 232.112 39.8785 231.689 39.3675C231.266 38.8565 230.761 38.6001 230.174 38.6001C229.591 38.6001 229.076 38.873 228.629 39.4169C228.18 39.9618 227.956 40.7516 227.956 41.7893ZM226.717 48.864V37.7132H227.963V38.7612C228.258 38.3507 228.589 38.0432 228.959 37.838C229.328 37.6335 229.777 37.5313 230.302 37.5313C230.992 37.5313 231.599 37.708 232.124 38.0614C232.653 38.4165 233.05 38.9163 233.318 39.5607C233.586 40.2069 233.721 40.9145 233.721 41.6827C233.721 42.5082 233.572 43.2505 233.276 43.9105C232.98 44.5723 232.55 45.0781 231.985 45.4298C231.42 45.7813 230.827 45.9572 230.203 45.9572C229.778 45.9644 229.356 45.8652 228.978 45.6687C228.632 45.4912 228.329 45.243 228.085 44.9403V48.864H226.717ZM17.3097 27.859H6.74103V42.9716H0V22.9392H17.3105L17.3097 27.859ZM28.647 31.4795H30.3021C31.6037 31.4795 32.518 31.2716 33.0457 30.8585C33.5717 30.4428 33.835 29.9126 33.835 29.2656C33.8397 28.9659 33.7812 28.6685 33.6631 28.3931C33.5449 28.1176 33.37 27.8701 33.1496 27.6667C32.6921 27.2294 31.8325 27.0111 30.5708 27.0111H28.647V31.4795ZM21.8635 22.9392H33.0899C35.5354 22.9392 37.3664 23.471 38.5839 24.5373C39.8014 25.6036 40.4107 27.1202 40.4107 29.088C40.4107 31.1105 39.7468 32.6912 38.4201 33.8303C37.0933 34.9684 35.0682 35.5383 32.3446 35.5383H28.647V42.9716H21.8635V22.9392ZM57.507 35.333L55.0946 28.1319L52.7072 35.333H57.507ZM58.9074 39.6647H51.241L50.1751 42.9716H43.279L51.494 22.9392H58.8607L67.074 42.9716H60.0028L58.9074 39.6647ZM70.7785 22.9392H77.5317V29.9491H84.9123V22.9392H91.6958V42.9716H84.9123V34.8687H77.5317V42.9716H70.7785V22.9392ZM111.531 38.3533V27.859H106.104V28.1188C106.104 30.8879 105.592 34.2989 104.569 38.3533H111.531ZM120.641 47.3309H115.2V42.9716H101.244V47.3309H95.8171V38.3533H98.0677C99.3302 35.1199 99.9619 31.4709 99.9619 27.4077V22.9385H118.285V38.3533H120.641V47.3309Z" fill="white"/>
</g>
<defs>
<clipPath id="clip0_7901_477">
<rect width="240" height="66" fill="white"/>
</clipPath>
</defs>
</svg>
