<svg width="300" height="83" viewBox="0 0 300 83" fill="none" xmlns="http://www.w3.org/2000/svg">
<g clip-path="url(#clip0_1922_1700)">
<path d="M109.18 22.9177C115.283 13.2594 126.01 6.84485 138.233 6.84485C156.142 6.84485 170.846 20.6063 172.481 38.1869H179.305C177.651 16.8235 159.902 0 138.233 0C122.095 0 108.133 9.3316 101.369 22.9177H109.18ZM172.481 44.6984C170.846 62.2789 156.141 76.0394 138.233 76.0394C126.009 76.0394 115.283 69.626 109.179 59.9664H101.369C108.133 73.5505 122.095 82.8843 138.233 82.8843C159.902 82.8843 177.651 66.062 179.305 44.6984H172.481Z" fill="#E21E2B"/>
<path d="M300 42.2317H155.45V40.4443H300V42.2317ZM185.087 47.4275H193.279V48.8491H190.033V57.5652H188.333V48.8491H185.087V47.4275ZM199.873 51.522H205.505C205.427 50.6703 205.211 50.0297 204.857 49.6028C204.314 48.9416 203.608 48.6115 202.741 48.6115C201.957 48.6115 201.297 48.8751 200.762 49.4034C200.227 49.9317 199.93 50.6387 199.873 51.522ZM205.484 54.2996L207.251 54.5207C206.971 55.5577 206.456 56.3626 205.703 56.9355C204.949 57.5085 203.987 57.795 202.817 57.795C201.341 57.795 200.173 57.3385 199.308 56.4247C198.444 55.5108 198.011 54.231 198.011 52.5818C198.011 50.8771 198.451 49.5526 199.324 48.6115C200.197 47.6693 201.33 47.1977 202.722 47.1977C204.07 47.1977 205.171 47.6606 206.025 48.5822C206.879 49.5059 207.308 50.8042 207.308 52.4773C207.308 52.5796 207.305 52.7322 207.298 52.9347H199.779C199.843 54.0501 200.156 54.902 200.719 55.4945C201.283 56.086 201.984 56.3823 202.825 56.3823C203.452 56.3823 203.987 56.2167 204.432 55.8855C204.873 55.5555 205.225 55.0251 205.484 54.2996ZM211.719 57.5663L215.402 52.2964L211.992 47.4275H214.13L215.676 49.8042C215.968 50.2562 216.202 50.6342 216.379 50.9403C216.659 50.5199 216.914 50.1485 217.149 49.8227L218.848 47.4264H220.889L217.405 52.2007L221.156 57.5663H219.056L216.987 54.415L216.437 53.5654L213.787 57.5663H211.719ZM226.497 47.4275H228.206V56.1524H232.933V47.4275H234.641V56.1524H235.743V60.4397H234.338V57.5652H226.497V47.4275ZM242.567 51.522H248.195C248.119 50.6703 247.905 50.0297 247.549 49.6028C247.005 48.9416 246.3 48.6115 245.433 48.6115C244.648 48.6115 243.989 48.8751 243.454 49.4034C242.917 49.9317 242.622 50.6387 242.567 51.522ZM248.176 54.2996L249.943 54.5207C249.665 55.5577 249.148 56.3626 248.395 56.9355C247.641 57.5085 246.681 57.795 245.51 57.795C244.033 57.795 242.864 57.3385 242 56.4247C241.137 55.5108 240.705 54.231 240.705 52.5818C240.705 50.8771 241.141 49.5526 242.014 48.6115C242.889 47.6693 244.022 47.1977 245.414 47.1977C246.762 47.1977 247.863 47.6606 248.717 48.5822C249.573 49.5059 249.998 50.8042 249.998 52.4773C249.998 52.5796 249.995 52.7322 249.99 52.9347H242.471C242.535 54.0501 242.848 54.902 243.411 55.4945C243.975 56.086 244.678 56.3823 245.517 56.3823C246.144 56.3823 246.681 56.2167 247.124 55.8855C247.567 55.5555 247.917 55.0251 248.176 54.2996ZM255.987 47.4275H257.695V51.6473H262.433V47.4275H264.141V57.5652H262.433V53.0698H257.695V57.5652H255.987V47.4275ZM269.683 47.4275H277.876V48.8491H274.629V57.5652H272.93V48.8491H269.683V47.4275ZM284.944 52.5536C284.944 53.8584 285.208 54.8225 285.733 55.4455C286.259 56.0707 286.894 56.3823 287.641 56.3823C288.402 56.3823 289.051 56.0587 289.592 55.4128C290.133 54.7668 290.403 53.767 290.403 52.4109C290.403 51.1178 290.14 50.1506 289.611 49.5079C289.083 48.8653 288.451 48.5429 287.717 48.5429C286.989 48.5429 286.344 48.8861 285.786 49.57C285.225 50.2553 284.944 51.2485 284.944 52.5536ZM283.397 61.4505V47.4275H284.954V48.7455C285.322 48.2293 285.737 47.8425 286.198 47.5844C286.66 47.3273 287.221 47.1988 287.878 47.1988C288.74 47.1988 289.498 47.421 290.156 47.8653C290.816 48.3119 291.313 48.9405 291.648 49.7509C291.983 50.5635 292.151 51.4533 292.151 52.4195C292.151 53.4576 291.965 54.3911 291.595 55.2211C291.225 56.0533 290.687 56.6894 289.981 57.1317C289.275 57.5738 288.533 57.795 287.754 57.795C287.222 57.804 286.695 57.6793 286.222 57.4322C285.79 57.2089 285.411 56.8969 285.106 56.5162V61.4505H283.397ZM21.6371 35.0351H8.42629V54.0404H0V28.8481H21.6381L21.6371 35.0351ZM35.8087 39.5882H37.8776C39.5046 39.5882 40.6475 39.3267 41.3071 38.8072C41.9646 38.2844 42.2938 37.6177 42.2938 36.804C42.2997 36.4271 42.2265 36.0532 42.0789 35.7068C41.9311 35.3603 41.7125 35.049 41.437 34.7933C40.8651 34.2433 39.7906 33.9687 38.2135 33.9687H35.8087V39.5882ZM27.3294 28.8481H41.3624C44.4192 28.8481 46.7079 29.5169 48.2298 30.8578C49.7517 32.1988 50.5133 34.106 50.5133 36.5807C50.5133 39.1242 49.6835 41.112 48.0251 42.5444C46.3667 43.9757 43.8352 44.6923 40.4308 44.6923H35.8087V54.0404H27.3294V28.8481ZM71.8838 44.4342L68.8683 35.3783L65.884 44.4342H71.8838ZM73.6343 49.8816H64.0513L62.7189 54.0404H54.0987L64.3675 28.8481H73.5759L83.8425 54.0404H75.0035L73.6343 49.8816ZM88.4732 28.8481H96.9146V37.6635H106.14V28.8481H114.62V54.0404H106.14V43.8504H96.9146V54.0404H88.4732V28.8481ZM139.414 48.2325V35.0351H132.63V35.3619C132.63 38.8442 131.99 43.1337 130.711 48.2325H139.414ZM150.801 59.5225H144V54.0404H126.554V59.5225H119.771V48.2325H122.585C124.163 44.1663 124.952 39.5773 124.952 34.4675V28.8472H147.857V48.2325H150.801V59.5225Z" fill="black"/>
</g>
<defs>
<clipPath id="clip0_1922_1700">
<rect width="300" height="83" fill="white"/>
</clipPath>
</defs>
</svg>
