<svg width="42" height="42" viewBox="0 0 42 42" fill="none" xmlns="http://www.w3.org/2000/svg">
<path fill-rule="evenodd" clip-rule="evenodd" d="M21.4265 37.8754C18.0781 37.8754 16.522 37.3866 13.8172 35.4313C12.1063 37.631 6.68855 39.3501 6.45226 36.409C6.45226 34.2012 5.96344 32.3355 5.40943 30.2987C4.74954 27.7894 4 24.9949 4 20.9459C4 11.2753 11.9353 4 21.337 4C30.7468 4 38.1199 11.6338 38.1199 21.0355C38.1515 30.2918 30.6828 37.8261 21.4265 37.8754ZM21.5651 12.3589C16.9864 12.1226 13.418 15.2918 12.6277 20.2615C11.976 24.3758 13.1329 29.3862 14.1186 29.6469C14.5912 29.761 15.7807 28.7996 16.522 28.0583C17.7479 28.9052 19.1755 29.4138 20.6608 29.5329C25.405 29.7611 29.4588 26.1493 29.7773 21.4103C29.9627 16.6612 26.31 12.6388 21.5651 12.367V12.3589Z" fill="white"/>
</svg>
