<svg width="32" height="32" viewBox="0 0 32 32" fill="none" xmlns="http://www.w3.org/2000/svg">
<path fill-rule="evenodd" clip-rule="evenodd" d="M16.3399 28.8575C13.7887 28.8575 12.6031 28.485 10.5423 26.9953C9.23875 28.6713 5.11092 29.981 4.93089 27.7402C4.93089 26.058 4.55845 24.6366 4.13635 23.0847C3.63358 21.1729 3.0625 19.0438 3.0625 15.9588C3.0625 8.59072 9.10841 3.04762 16.2716 3.04762C23.441 3.04762 29.0586 8.86385 29.0586 16.027C29.0827 23.0795 23.3923 28.8199 16.3399 28.8575ZM16.4454 9.41628C12.9569 9.23629 10.2381 11.6509 9.63602 15.4374C9.13943 18.5721 10.0209 22.3895 10.7719 22.5881C11.132 22.675 12.0382 21.9426 12.6031 21.3777C13.5371 22.023 14.6248 22.4105 15.7564 22.5012C19.3711 22.6751 22.4597 19.9233 22.7023 16.3126C22.8436 12.6943 20.0606 9.62958 16.4454 9.42251V9.41628Z" fill="black"/>
</svg>
