<svg width="24" height="24" viewBox="0 0 24 24" fill="none" xmlns="http://www.w3.org/2000/svg">
<path d="M12.7358 20.191C12.4241 20.0525 12.1173 19.9034 11.8158 19.744C10.3138 18.895 8.93446 17.8453 7.71579 16.624C6.13389 15.135 4.83461 13.3719 3.88079 11.42C3.37055 10.3711 3.0258 9.24944 2.85879 8.095C2.63232 6.92901 2.76122 5.72188 3.22879 4.63C3.51779 4.16 3.86579 3.73 4.26379 3.351C4.42529 3.16984 4.62176 3.02321 4.84139 2.91993C5.06101 2.81665 5.29925 2.75885 5.54179 2.75C6.04679 2.826 6.50379 3.09 6.81979 3.492C7.50979 4.259 8.24979 4.949 8.97879 5.678C9.26579 5.924 9.44479 6.273 9.47679 6.65C9.46479 6.967 9.34279 7.27 9.13179 7.507C8.88979 7.814 8.59579 8.095 8.31479 8.389C8.14537 8.55279 8.0158 8.75327 7.93605 8.97501C7.8563 9.19675 7.8285 9.43383 7.85479 9.668C8.0312 10.2156 8.33285 10.7144 8.73579 11.125C9.22179 11.79 9.70679 12.405 10.2558 13.056C11.2432 14.1965 12.4136 15.1647 13.7188 15.921C13.8993 16.0571 14.1127 16.1429 14.3372 16.1698C14.5616 16.1967 14.7892 16.1636 14.9968 16.074C15.4313 15.8321 15.8169 15.5113 16.1338 15.128C16.4088 14.793 16.8028 14.578 17.2328 14.527C17.6158 14.547 17.9768 14.711 18.2428 14.987C18.5868 15.281 18.8808 15.627 19.2008 15.946C19.5198 16.266 19.7758 16.496 20.0438 16.79C20.3651 17.0733 20.6675 17.376 20.9508 17.698C21.1708 17.982 21.2748 18.338 21.2448 18.695C21.1308 19.1223 20.8847 19.5027 20.5418 19.782C20.0596 20.2838 19.4737 20.6742 18.8249 20.9261C18.1762 21.1779 17.4802 21.285 16.7858 21.24C15.3799 21.1602 14.0036 20.8038 12.7358 20.191Z" stroke="#9EA5A7" stroke-miterlimit="10" stroke-linecap="round"/>
</svg>
