<svg width="66" height="66" viewBox="0 0 66 66" fill="none" xmlns="http://www.w3.org/2000/svg">
<path d="M63.2404 10.3208C53.9839 8.98838 43.7539 8.25 33 8.25C22.2461 8.25 12.0161 8.98838 2.75963 10.3208C0.985875 17.2631 0 24.9356 0 33C0 41.0644 0.985875 48.7369 2.75963 55.6792C12.0161 57.0116 22.2461 57.75 33 57.75C43.7539 57.75 53.9839 57.0116 63.2404 55.6792C65.0141 48.7369 66 41.0644 66 33C66 24.9356 65.0141 17.2631 63.2404 10.3208ZM24.75 45.375V20.625L45.375 33L24.75 45.375Z" fill="#E21E2B"/>
<path d="M24.75 45.375V20.625L45.375 33L24.75 45.375Z" fill="white"/>
</svg>
