<svg width="24" height="24" viewBox="0 0 24 24" fill="none" xmlns="http://www.w3.org/2000/svg">
<path d="M4.90974 11.1594H3.33398V8.81155H20.6673V11.1594H19.0916M4.90974 11.1594H19.0916M4.90974 11.1594V21.3333H19.0916V11.1594M12.0007 21.3333V8.81155M4.90974 15.855H19.0916M12.7885 7.24633C12.7885 7.24633 16.3643 6.66663 17.334 5.99996C18.3037 5.33329 18.6673 3.99996 18.3037 3.33328C17.94 2.66661 16.6673 2.33328 15.1522 3.33328C13.637 4.33328 12.7885 7.24633 12.7885 7.24633ZM11.1087 7.24633C11.1087 7.24633 7.53297 6.66662 6.56327 5.99996C5.59357 5.33329 5.22994 3.99996 5.59357 3.33328C5.95721 2.66661 7.22994 2.33328 8.74509 3.33328C10.2602 4.33328 11.1087 7.24633 11.1087 7.24633Z" stroke="#E21E2B" stroke-miterlimit="10" stroke-linecap="round" stroke-linejoin="round"/>
</svg>
