<svg width="444" height="444" viewBox="0 0 444 444" fill="none" xmlns="http://www.w3.org/2000/svg">
<path d="M203.5 259H240.5V296H203.5V259Z" fill="#8F97A3"/>
<path d="M370 55.5H74C53.65 55.5 37 72.15 37 92.5V314.5C37 334.85 53.65 351.5 74 351.5H129.5V388.5C129.5 395.16 133.015 401.265 138.935 404.595C141.764 406.191 144.962 407.014 148.21 406.981C151.457 406.949 154.639 406.062 157.435 404.41L245.495 351.5H369.815C390.165 351.5 406.815 334.85 406.815 314.5V92.5C406.815 72.15 390.165 55.5 369.815 55.5H370ZM370 314.5H240.5C237.17 314.5 233.84 315.425 231.065 317.09L166.5 355.755V333C166.5 322.825 158.175 314.5 148 314.5H74V92.5H370V314.5Z" fill="#8F97A3"/>
<path d="M202.389 156.14C212.934 145.595 231.064 145.595 241.609 156.14C245.494 160.017 248.142 164.96 249.215 170.343C250.289 175.726 249.741 181.306 247.642 186.378C245.542 191.449 241.984 195.783 237.42 198.831C232.855 201.879 227.488 203.504 221.999 203.5C211.824 203.5 203.499 211.825 203.499 222V240.5H240.499V237.91C250.674 234.95 260.109 229.4 267.694 221.63C279.904 209.42 286.749 193.14 286.749 175.935C286.749 158.73 280.089 142.45 267.694 130.24C243.274 105.82 200.539 105.82 176.119 130.24C163.909 142.45 157.064 158.73 157.064 175.935H194.064C194.064 168.535 197.024 161.505 202.204 156.325L202.389 156.14Z" fill="#8F97A3"/>
</svg>
