<svg width="42" height="42" viewBox="0 0 42 42" fill="none" xmlns="http://www.w3.org/2000/svg">
<path d="M24.9962 10.1011H1V35.9908H7.67879V27.5681H20.4767L26.3159 35.9908H33.7944L27.3555 27.5293C29.3554 27.219 30.795 26.4811 31.6749 25.3168C32.5545 24.1525 32.9945 22.2893 32.9945 19.8051V17.8644C32.9945 16.3892 32.835 15.2248 32.5547 14.3322C32.2747 13.4394 31.7948 12.663 31.1149 11.9645C30.3951 11.3045 29.5952 10.8387 28.6353 10.5284C27.6754 10.2566 26.4757 10.1011 24.9962 10.1011ZM23.9164 21.8626H7.67879V15.8069H23.9164C24.8359 15.8069 25.4759 15.9622 25.7958 16.2339C26.1156 16.5056 26.3159 17.01 26.3159 17.7479V19.9216C26.3159 20.6977 26.1156 21.2021 25.7958 21.4739C25.4759 21.7456 24.8361 21.8626 23.9164 21.8626Z" fill="white"/>
<path d="M32.0128 7.97679C34.2144 7.97679 36.0005 6.19119 36.0005 3.9884C36.0005 1.78561 34.2144 0 32.0128 0C29.8095 0 28.0234 1.78561 28.0234 3.9884C28.0234 6.19119 29.8095 7.97679 32.0128 7.97679Z" fill="white"/>
</svg>
