<svg width="269" height="269" viewBox="0 0 269 269" fill="none" xmlns="http://www.w3.org/2000/svg">
<g clip-path="url(#clip0_7972_1716)">
<path d="M161.358 185.17L159.582 186.195C142.774 195.9 125.128 198.275 106.644 193.322C88.1597 188.37 74.0655 177.489 64.3612 160.681C54.6569 143.873 52.2812 126.226 57.234 107.742C62.1868 89.2581 73.0673 75.1639 89.8756 65.4596C98.2798 60.6075 107.028 57.6465 116.119 56.5766C125.211 55.5067 134.097 56.1368 142.778 58.4668C151.459 60.7969 159.468 64.6957 166.804 70.1634C174.139 75.631 180.237 82.5679 185.097 90.9741C194.254 106.835 198.293 124.153 197.213 142.926C196.133 161.7 191.01 178.861 181.845 194.412C181.003 195.687 180.008 196.697 178.859 197.442C177.711 198.187 176.492 198.534 175.2 198.485C173.909 198.435 172.636 198.144 171.382 197.612C170.128 197.079 169.064 196.194 168.191 194.956L161.358 185.17ZM150.92 159.711C151.52 157.47 151.24 155.344 150.078 153.331C148.916 151.319 147.215 150.013 144.974 149.412C142.734 148.812 140.608 149.093 138.595 150.255C136.583 151.416 135.277 153.118 134.676 155.358C134.076 157.599 134.357 159.725 135.519 161.737C136.68 163.749 138.382 165.056 140.622 165.656C142.862 166.256 144.989 165.976 147.001 164.814C149.013 163.652 150.32 161.951 150.92 159.711ZM100.391 119.756C102.035 119.596 103.355 118.875 104.351 117.593C105.346 116.311 105.916 114.837 106.058 113.17C106.303 111.135 106.913 109.321 107.888 107.729C108.863 106.137 110.24 104.831 112.018 103.811C114.859 102.171 117.627 101.636 120.324 102.206C123.021 102.777 125.088 104.307 126.526 106.798C127.415 108.337 127.86 110.131 127.863 112.181C127.866 114.231 127.39 117.031 126.435 120.581C124.979 124.894 124.208 128.616 124.122 131.746C124.035 134.877 124.674 137.623 126.038 139.986C126.858 141.406 128.064 142.33 129.654 142.756C131.245 143.182 132.747 142.984 134.16 142.162C135.573 141.34 136.449 140.124 136.788 138.514C137.128 136.904 137.12 135.251 136.766 133.555C136.196 131.201 136.202 128.752 136.784 126.206C137.366 123.66 137.933 121.361 138.483 119.307C139.534 115.386 139.964 111.823 139.774 108.619C139.584 105.414 138.769 102.57 137.329 100.087C134.186 94.6423 129.792 91.3397 124.147 90.1794C118.503 89.0192 112.546 90.2487 106.277 93.868C102.489 96.0549 99.5279 98.9894 97.3926 102.672C95.2573 106.354 94.1047 110.372 93.9349 114.725C93.9764 116.437 94.6218 117.762 95.871 118.701C97.1203 119.64 98.6269 119.992 100.391 119.756Z" fill="#D3D9E2"/>
</g>
<defs>
<clipPath id="clip0_7972_1716">
<rect width="196.819" height="196.819" fill="white" transform="translate(0 98.4097) rotate(-30)"/>
</clipPath>
</defs>
</svg>
