<svg width="204" height="204" viewBox="0 0 204 204" fill="none" xmlns="http://www.w3.org/2000/svg">
<path d="M110.5 93.5L153 51" stroke="#8F97A3" stroke-width="7"/>
<path d="M161.501 59.5L144.501 42.5L165.751 29.75L174.251 38.25L161.501 59.5ZM34.2132 76.2875C30.1322 72.2102 27.3247 67.0344 26.1325 61.3902C24.9403 55.746 25.4148 49.8769 27.4981 44.4975L39.5851 56.5845H56.5851V39.5845L44.4981 27.4975C49.8779 25.4094 55.7489 24.9311 61.3957 26.1207C67.0425 27.3103 72.2215 30.1166 76.3016 34.1976C80.3817 38.2786 83.1869 43.4582 84.3752 49.1053C85.5636 54.7524 85.0839 60.6232 82.9946 66.0025L137.99 121.006C143.369 118.917 149.24 118.437 154.887 119.625C160.534 120.814 165.714 123.619 169.795 127.699C173.876 131.779 176.682 136.958 177.871 142.605C179.061 148.252 178.583 154.123 176.495 159.503L164.416 147.416H147.416V164.416L159.503 176.503C154.125 178.591 148.255 179.07 142.609 177.882C136.963 176.693 131.785 173.889 127.704 169.81C123.624 165.732 120.817 160.554 119.627 154.909C118.436 149.264 118.912 143.394 120.998 138.015L65.9861 83.0025C60.609 85.0823 54.7434 85.5549 49.1026 84.3628C43.4618 83.1706 38.289 80.3652 34.2132 76.2875Z" stroke="#8F97A3" stroke-width="7" stroke-linejoin="round"/>
<path d="M103.726 123.25L56.0922 170.884C55.0264 171.952 53.7604 172.799 52.3668 173.377C50.9731 173.955 49.4792 174.253 47.9705 174.253C46.4617 174.253 44.9678 173.955 43.5741 173.377C42.1805 172.799 40.9145 171.952 39.8487 170.884L33.1167 164.152C32.0488 163.086 31.2017 161.82 30.6236 160.427C30.0456 159.033 29.748 157.539 29.748 156.03C29.748 154.522 30.0456 153.028 30.6236 151.634C31.2017 150.24 32.0488 148.974 33.1167 147.909L80.7507 100.275" stroke="#8F97A3" stroke-width="7" stroke-linejoin="round"/>
</svg>
