<svg width="204" height="204" viewBox="0 0 204 204" fill="none" xmlns="http://www.w3.org/2000/svg">
<path d="M165.75 148.75C165.75 154.386 163.511 159.791 159.526 163.776C155.541 167.761 150.136 170 144.5 170C138.864 170 133.459 167.761 129.474 163.776C125.489 159.791 123.25 154.386 123.25 148.75C123.25 143.114 125.489 137.709 129.474 133.724C133.459 129.739 138.864 127.5 144.5 127.5C150.136 127.5 155.541 129.739 159.526 133.724C163.511 137.709 165.75 143.114 165.75 148.75ZM80.75 148.75C80.75 154.386 78.5112 159.791 74.526 163.776C70.5409 167.761 65.1359 170 59.5 170C53.8641 170 48.4591 167.761 44.474 163.776C40.4888 159.791 38.25 154.386 38.25 148.75C38.25 143.114 40.4888 137.709 44.474 133.724C48.4591 129.739 53.8641 127.5 59.5 127.5C65.1359 127.5 70.5409 129.739 74.526 133.724C78.5112 137.709 80.75 143.114 80.75 148.75Z" stroke="#8F97A3" stroke-width="10"/>
<path d="M123.25 148.75H80.75M165.75 148.75H172.236C174.106 148.75 175.04 148.75 175.822 148.648C178.636 148.298 181.253 147.019 183.259 145.015C185.265 143.01 186.545 140.395 186.898 137.581C187 136.791 187 135.855 187 133.985V110.5C187 95.8468 181.179 81.7937 170.818 71.4323C160.456 61.071 146.403 55.25 131.75 55.25M127.5 131.75V59.5C127.5 47.481 127.5 41.4715 123.76 37.74C120.037 34 114.027 34 102 34H42.5C30.481 34 24.4715 34 20.74 37.74C17 41.463 17 47.4725 17 59.5V127.5C17 135.448 17 139.417 18.7085 142.375C19.8275 144.313 21.4369 145.922 23.375 147.041C26.333 148.75 30.3025 148.75 38.25 148.75M55.25 59.5V93.5M89.25 59.5V93.5" stroke="#8F97A3" stroke-width="10" stroke-linecap="round" stroke-linejoin="round"/>
</svg>
