<svg width="24" height="24" viewBox="0 0 24 24" fill="none" xmlns="http://www.w3.org/2000/svg">
<path d="M16.8 5.59675C16.7992 6.86924 16.2931 8.08932 15.393 8.9888C14.4929 9.88828 13.2725 10.3936 12 10.3936C11.051 10.3932 10.1233 10.1115 9.33442 9.58399C8.54551 9.05647 7.93073 8.30686 7.56785 7.42995C7.20496 6.55303 7.11026 5.5882 7.29571 4.65746C7.48117 3.72673 7.93846 2.87189 8.60975 2.20104C9.28104 1.5302 10.1362 1.07348 11.0671 0.888643C11.9979 0.703806 12.9627 0.799152 13.8394 1.16262C14.716 1.5261 15.4652 2.14137 15.9922 2.93064C16.5192 3.71991 16.8003 4.64772 16.8 5.59675ZM20 23.184H4V19.9904C4 18.7173 4.50571 17.4964 5.40589 16.5962C6.30606 15.6961 7.52696 15.1904 8.8 15.1904H15.2C16.473 15.1904 17.6939 15.6961 18.5941 16.5962C19.4943 17.4964 20 18.7173 20 19.9904V23.184Z" stroke="#9EA5A7" stroke-linecap="square"/>
</svg>
