<svg width="42" height="42" viewBox="0 0 42 42" fill="none" xmlns="http://www.w3.org/2000/svg">
<g clip-path="url(#clip0_7901_500)">
<path fill-rule="evenodd" clip-rule="evenodd" d="M41.0375 10.409C41.328 9.4535 41.0375 8.75 39.6463 8.75H35.0525C33.8835 8.75 33.3445 9.35725 33.0522 10.0275C33.0522 10.0275 30.716 15.6205 27.4067 19.2535C26.3358 20.307 25.8493 20.6413 25.2648 20.6413C24.9725 20.6413 24.5333 20.307 24.5333 19.3498V10.409C24.5333 9.261 24.2113 8.75 23.2383 8.75H16.0142C15.2845 8.75 14.8452 9.282 14.8452 9.78775C14.8452 10.8745 16.5007 11.1265 16.6705 14.1855V20.832C16.6705 22.2898 16.4028 22.554 15.8182 22.554C14.2607 22.554 10.472 16.9347 8.22325 10.5052C7.7875 9.254 7.3465 8.75 6.17225 8.75H1.575C0.2625 8.75 0 9.35725 0 10.0275C0 11.221 1.5575 17.15 7.25375 24.9918C11.0513 30.3468 16.3975 33.25 21.2677 33.25C24.1885 33.25 24.549 32.606 24.549 31.4947V27.447C24.549 26.1572 24.8255 25.9 25.7513 25.9C26.4338 25.9 27.601 26.236 30.3275 28.8172C33.4425 31.878 33.9552 33.25 35.7088 33.25H40.3025C41.615 33.25 42.273 32.606 41.895 31.332C41.4785 30.065 39.991 28.2257 38.0187 26.0435C36.9478 24.801 35.3413 23.4623 34.853 22.792C34.1722 21.9328 34.3665 21.5495 34.853 20.7847C34.853 20.7847 40.453 13.0392 41.0357 10.409" fill="white"/>
</g>
<defs>
<clipPath id="clip0_7901_500">
<rect width="42" height="42" fill="white"/>
</clipPath>
</defs>
</svg>
