<svg width="42" height="42" viewBox="0 0 42 42" fill="none" xmlns="http://www.w3.org/2000/svg">
<path d="M36.7504 36.75L29.1501 29.1497M29.1501 29.1497C30.4502 27.8497 31.4814 26.3063 32.185 24.6077C32.8886 22.9091 33.2507 21.0885 33.2507 19.25C33.2507 17.4114 32.8886 15.5909 32.185 13.8923C31.4814 12.1937 30.4502 10.6503 29.1501 9.35024C27.8501 8.05019 26.3067 7.01893 24.6081 6.31535C22.9095 5.61176 21.0889 5.24963 19.2504 5.24963C17.4118 5.24963 15.5913 5.61176 13.8927 6.31535C12.1941 7.01893 10.6507 8.05019 9.35061 9.35024C6.72503 11.9758 5.25 15.5369 5.25 19.25C5.25 22.9631 6.72503 26.5242 9.35061 29.1497C11.9762 31.7753 15.5372 33.2504 19.2504 33.2504C22.9635 33.2504 26.5245 31.7753 29.1501 29.1497ZM19.2504 14V24.5M14.0004 19.25H24.5004" stroke="white" stroke-width="3" stroke-linecap="round" stroke-linejoin="round"/>
</svg>
